<svg id="Apple AppStore" xmlns="http://www.w3.org/2000/svg" viewBox="0 0 344.03312 114.99999"><g id="svg1694"><path d="M344.0107,24.27777c0-.88158,0-1.76598-.01121-2.64759-.03464-1.92915-.21299-3.85306-.5336-5.75573-.31246-1.90368-.91263-3.74879-1.77993-5.47202-1.77464-3.4584-4.58874-6.27351-8.04651-8.04941-1.72884-.8704-3.5779-1.47797-5.48608-1.8026-1.90075-.31687-3.8231-.48678-5.74997-.50819-.87602-.01403-1.77445-.03089-2.65044-.03648-1.03329-.00576-2.08324-.00576-3.1165-.00576l-.00003.00038H27.41216C26.35791.00038,25.31626.00038,24.2648.00611c-.88021.00576-1.75335.02248-2.64194.03654-1.93057.02269-3.85654.19255-5.76124.50802-1.90201.32236-3.74449.93007-5.465,1.80263-1.71843.87991-3.28863,2.0233-4.65359,3.38864-1.3722,1.36148-2.51592,2.93519-3.38741,4.6606-.87385,1.72199-1.47975,3.56724-1.79687,5.47202-.32008,1.90242-.49232,3.82674-.51518,5.75575-.0267.88147-.02949,1.76587-.04358,2.64745v66.45328c.01409.89268.01688,1.75748.04358,2.65047.02286,1.9289.1951,3.85314.51518,5.75542.31624,1.90593.9222,3.75222,1.79687,5.47484.87105,1.71982,2.01499,3.28717,3.38741,4.64112,1.35981,1.3714,2.931,2.51556,4.65359,3.38875,1.72051.87486,3.56277,1.48619,5.465,1.81354,1.90503.31295,3.83077.48286,5.76124.5083.8886.01954,1.76173.03075,2.64194.03075,1.05146.00576,2.09311.00576,3.14736.00576h289.22428c1.03326,0,2.08324,0,3.1165-.00573.87602,0,1.77445-.01121,2.65044-.03078,1.92676-.02409,3.84892-.194,5.75-.5083,1.90837-.32962,3.75724-.94081,5.48605-1.81354,1.72106-.87369,3.29082-2.01781,4.64945-3.38875,1.36883-1.35923,2.51523-2.92543,3.39708-4.64109.86812-1.72388,1.46835-3.57003,1.77993-5.47484.32057-1.90256.49895-3.82639.5336-5.75545.01121-.89298.01121-1.75779.01121-2.65047.02242-1.04447.02242-2.08321.02242-3.14465V27.41666c0-1.05286,0-2.09727-.02242-3.13889ZM341.5232,87.58637c0,1.0445,0,2.06367-.02272,3.0912,0,.93494,0,1.79139-.01121,2.67289-.03352,1.78585-.19776,3.56688-.49133,5.32878-.26825,1.67057-.7919,3.28991-1.55249,4.80124-.75777,1.4732-1.74318,2.81769-2.91984,3.98388-1.17447,1.18963-2.53299,2.18224-4.02327,2.93966-1.51004.76473-3.12667,1.29762-4.79548,1.5807-1.77708.29026-3.5734.44698-5.37392.46891-.84208.01954-1.72385.03075-2.58002.03075l-3.1165.00576-292.35758-.00576c-.87593,0-1.73076-.01121-2.59984-.03075-1.80038-.02346-3.59654-.18019-5.37378-.46891-1.65714-.28541-3.26253-.81632-4.76311-1.57522-1.48677-.75262-2.8429-1.73945-4.01633-2.92272-1.19042-1.16934-2.18147-2.52556-2.93396-4.01493-.76076-1.49905-1.28723-3.10584-1.56115-4.76443-.29574-1.78215-.45575-3.5842-.47867-5.39061-.0182-.60634-.0421-2.62514-.0421-2.62514V24.27777s.02544-1.9878.04226-2.5718c.02193-1.80353.18101-3.60279.47587-5.38217.27442-1.66312.80133-3.27457,1.56247-4.77852.74969-1.48836,1.73526-2.84559,2.9185-4.0191,1.18193-1.18467,2.54239-2.17659,4.03174-2.9396,1.49713-.75646,3.09945-1.28361,4.7533-1.56381,1.783-.29163,3.58541-.44929,5.39204-.47168l2.59414-.03508h295.45862l2.62517.03651c1.79018.02127,3.5762.17753,5.34287.46743,1.67057.28374,3.28959.81456,4.80382,1.57508,2.98373,1.53767,5.41153,3.97042,6.94311,6.95728.74903,1.49356,1.2678,3.09186,1.53871,4.74061.2984,1.79402.46538,3.60739.49966,5.42572.00833.81421.00833,1.68877.00833,2.55914.02272,1.07813.02272,2.10429.02272,3.13889v60.16971Z" style="fill:#fff;"/><g id="_Group_"><g id="_Group_2"><g id="_Group_3"><path id="_Path_" d="M71.21031,58.36464c.06284-4.87734,2.61982-9.38251,6.77509-11.93713-2.63328-3.7608-6.88574-6.05974-11.47455-6.20331-4.8278-.50675-9.50814,2.88888-11.9683,2.88888-2.50777,0-6.29557-2.83857-10.3744-2.75464-5.36668.17339-10.2486,3.15069-12.8596,7.8426-5.56023,9.62667-1.4128,23.77465,3.91344,31.55613,2.66483,3.81037,5.77925,8.06665,9.8544,7.91571,3.98778-.1654,5.47714-2.54287,10.29074-2.54287,4.76892,0,6.16625,2.54287,10.32409,2.44691,4.27908-.06946,6.9751-3.8273,9.54644-7.67375,1.91467-2.71503,3.38802-5.71572,4.36544-8.89094-5.08225-2.14954-8.38686-7.12944-8.3928-12.64757Z" style="fill:#fff;"/><path id="_Path_2" d="M63.3569,35.10657c2.33313-2.80084,3.48257-6.40084,3.20423-10.0355-3.56451.37438-6.85711,2.07798-9.22176,4.77136-2.33499,2.65738-3.51788,6.13394-3.28815,9.66396,3.6123.03719,7.04211-1.58446,9.30568-4.39983Z" style="fill:#fff;"/></g></g><path d="M121.61863,78.02662h-13.60848l-3.26806,9.64976h-5.76402l12.88973-35.70163h5.98861l12.88973,35.70163h-5.8623l-3.26522-9.64976ZM109.41956,73.57374h10.78696l-5.31761-15.66085h-.14881l-5.32054,15.66085Z" style="fill:#fff;"/><path d="M158.5836,74.66311c0,8.08873-4.32933,13.28559-10.86264,13.28559-3.377.17665-6.55796-1.59214-8.18978-4.55398h-.12362v12.89255h-5.34288v-34.64024h5.17169v4.32933h.09827c1.70432-2.94328,4.8887-4.7113,8.28805-4.60168,6.60619.00003,10.96091,5.22216,10.96091,13.28844ZM153.09191,74.66311c0-5.26986-2.72339-8.73448-6.87865-8.73448-4.08226,0-6.8281,3.53759-6.8281,8.73448,0,5.24462,2.74584,8.75693,6.8281,8.75693,4.15528,0,6.87865-3.43933,6.87865-8.75693Z" style="fill:#fff;"/><path d="M187.23241,74.66311c0,8.08873-4.32933,13.28559-10.86264,13.28559-3.377.17665-6.55796-1.59214-8.18978-4.55398h-.12362v12.89255h-5.34288v-34.64024h5.17159v4.32933h.09827c1.70433-2.94328,4.88873-4.7113,8.28808-4.60165,6.60638,0,10.96098,5.22213,10.96098,13.28841ZM181.74072,74.66311c0-5.26986-2.72339-8.73448-6.87865-8.73448-4.08226,0-6.8281,3.53759-6.8281,8.73448,0,5.24462,2.74584,8.75693,6.8281,8.75693,4.15529,0,6.87868-3.43933,6.87868-8.75693h-.00003Z" style="fill:#fff;"/><path d="M206.16694,77.729c.39589,3.5404,3.83524,5.86498,8.53513,5.86498,4.5034,0,7.74338-2.32469,7.74338-5.51696,0-2.77111-1.9541-4.43036-6.58103-5.56748l-4.62692-1.11463c-6.55576-1.58349-9.59921-4.6494-9.59921-9.62449,0-6.1599,5.36815-10.39096,12.99078-10.39096,7.54398,0,12.71566,4.23107,12.88973,10.39096h-5.39348c-.32285-3.56286-3.26806-5.71347-7.57212-5.71347s-7.24922,2.17591-7.24922,5.34288c0,2.52404,1.8811,4.00926,6.48277,5.14623l3.93344.96582c7.32505,1.7323,10.36852,4.67473,10.36852,9.89681,0,6.67929-5.32044,10.86264-13.78257,10.86264-7.91745,0-13.26314-4.08508-13.60848-10.54259l5.46929.00026Z" style="fill:#fff;"/><path d="M239.61956,55.48712v6.1599h4.94981v4.23107h-4.94981v14.34968c0,2.22924.99109,3.26806,3.16698,3.26806.58762-.01024,1.17428-.05151,1.75756-.12362v4.2058c-.97828.18279-1.97261.26558-2.96764.24707-5.26986,0-7.32505-1.97937-7.32505-7.02745v-14.91954h-3.78463v-4.23107h3.78457v-6.1599h5.36821Z" style="fill:#fff;"/><path d="M247.43608,74.66311c0-8.18978,4.82345-13.33613,12.34507-13.33613,7.54685,0,12.34786,5.14623,12.34786,13.33613,0,8.21226-4.77574,13.33613-12.34786,13.33613-7.56946,0-12.34507-5.1239-12.34507-13.33613ZM266.68504,74.66311c0-5.61802-2.57458-8.9338-6.90391-8.9338s-6.9011,3.34105-6.9011,8.9338c0,5.64047,2.57177,8.93101,6.9011,8.93101s6.90378-3.29054,6.90378-8.93101h.00013Z" style="fill:#fff;"/><path d="M276.53401,61.64702h5.09581v4.43036h.12362c.71063-2.85202,3.32386-4.81488,6.26094-4.70274.61572-.00215,1.22973.06472,1.83056.19935v4.99754c-.77731-.23752-1.58816-.34658-2.40061-.32286-2.97095-.12053-5.47712,2.1902-5.59765,5.16116-.01121.27618-.00112.55281.03016.82745v15.43904h-5.34288l.00004-26.02929Z" style="fill:#fff;"/><path d="M314.47884,80.03123c-.71875,4.72519-5.32044,7.96798-11.20797,7.96798-7.57212,0-12.27203-5.07335-12.27203-13.21259,0-8.16451,4.72518-13.45967,12.04745-13.45967,7.20151,0,11.73019,4.94699,11.73019,12.83919v1.83057h-18.38422v.32286c-.33033,3.72946,2.4252,7.02058,6.15467,7.35092.28177.02496.56481.03225.8475.02185,2.59278.24293,5.03729-1.24591,6.01109-3.66113l5.07333.00002ZM296.41749,72.26258h13.01326c.19221-3.4518-2.45021-6.40585-5.90201-6.59806-.16067-.00894-.32162-.01169-.48249-.00824-3.63921-.02171-6.60696,2.91085-6.62867,6.55006-.00011.01875-.00013.03751-.00009.05624Z" style="fill:#fff;"/></g><g id="_Group_4"><path d="M108.74995,25.10192c4.18051-.3,7.81267,2.84577,8.11267,7.02628.03583.49933.02218,1.00097-.04079,1.49761,0,5.48045-2.96202,8.63072-8.07188,8.63072h-6.19638v-17.15461h6.19638ZM105.21797,39.8305h3.23436c2.97325.17772,5.5276-2.08849,5.70532-5.06173.02212-.37.00603-.7413-.048-1.108.40597-2.95896-1.66363-5.68677-4.62258-6.09274-.34278-.04703-.68928-.06105-1.03474-.04188h-3.23436v12.30436Z" style="fill:#fff;"/><path d="M131.42137,38.7608c-.71643,2.44196-3.07955,4.01974-5.6096,3.74534-3.24644.0857-5.94768-2.47659-6.03337-5.72303-.00846-.32061.00932-.64137.05317-.95908-.43787-3.26845,1.85678-6.27301,5.12523-6.71088.27965-.03746.5616-.05506.84374-.05265,3.60216,0,5.77525,2.46099,5.77525,6.52623v.89154h-9.14144v.14317c-.15858,1.88315,1.23946,3.5383,3.12261,3.69688.10813.00911.21664.01306.32513.01186,1.24997.15006,2.46671-.46997,3.07995-1.56946l2.45933.00009ZM122.43415,34.5887h6.53891c.12753-1.72039-1.16374-3.21843-2.88414-3.34595-.10065-.00746-.2016-.01004-.3025-.00773-1.82841-.0229-3.3292,1.44076-3.3521,3.26918-.00035.02816-.00034.05633.00002.0845h-.0002Z" style="fill:#fff;"/><path d="M139.73752,29.06053c2.9115,0,4.81504,1.35467,5.06492,3.63727h-2.45104c-.23575-.95039-1.16515-1.55681-2.61388-1.55681-1.42625,0-2.50987.67663-2.50987,1.68736,0,.77337.65417,1.26063,2.05798,1.58208l2.1505.49835c2.46228.57135,3.61619,1.6298,3.61619,3.53198,0,2.43701-2.27125,4.06541-5.36252,4.06541-3.07995,0-5.08739-1.39118-5.31479-3.68499h2.55773c.45363,1.12365,1.61703,1.79117,2.81602,1.61575,1.59191,0,2.72339-.713,2.72339-1.74774,0-.77208-.60645-1.27184-1.90356-1.58067l-2.25733-.52362c-2.46228-.58259-3.60216-1.68736-3.60216-3.6134.00001-2.29519,2.10289-3.91097,5.02843-3.91097Z" style="fill:#fff;"/><path d="M156.97062,33.54146c-.33659-1.38718-1.63534-2.32099-3.0575-2.19836-2.1394,0-3.44774,1.63963-3.44774,4.39813,0,2.80619,1.31962,4.48234,3.44774,4.48234,1.41007.16337,2.72102-.74911,3.0575-2.12815h2.48474c-.34173,2.72611-2.79425,4.6829-5.52818,4.41075-3.28182.10362-6.02627-2.47282-6.12989-5.75464-.01066-.33767.00748-.67563.05422-1.01022-.43188-3.23113,1.83737-6.20057,5.06849-6.63245.3291-.04399.66132-.06013.99314-.04825,2.75608-.25386,5.21327,1.73279,5.54221,4.48093l-2.48473-.00009Z" style="fill:#fff;"/><path d="M161.99063,38.59517c0-2.33032,1.73511-3.67375,4.81504-3.86468l3.50671-.20214v-1.11742c0-1.36732-.90404-2.13939-2.65037-2.13939-1.42625,0-2.41453.52362-2.69812,1.4389h-2.4735c.26111-2.22363,2.35278-3.64989,5.28952-3.64989,3.24561,0,5.07617,1.61575,5.07617,4.35038v8.84537h-2.45946v-1.81932h-.20214c-.83533,1.32861-2.32083,2.10511-3.88854,2.03262-2.14825.22345-4.07089-1.3369-4.29435-3.48515-.01346-.12933-.02045-.25925-.02096-.38928ZM170.31238,37.48896v-1.08232l-3.16137.20214c-1.78284.11931-2.59143.72576-2.59143,1.86705,0,1.16515,1.01073,1.84319,2.40061,1.84319,1.6769.16975,3.17389-1.05203,3.34364-2.72893.00341-.03366.00626-.06737.00854-.10113ZM166.24696,27.14572l2.98448-4.08927h2.99574l-3.34109,4.08927h-2.63913Z" style="fill:#fff;"/><path d="M176.85693,29.31039h2.45946v1.98498h.19093c.56487-1.41367,1.97658-2.30208,3.49547-2.19977.38267-.00514.7648.03062,1.13987.10669v2.52137c-.46887-.10019-.9468-.15193-1.42625-.15442-1.66854-.14984-3.14262,1.08131-3.29247,2.74985-.00876.09761-.0128.19559-.01207.29359v7.64371h-2.55492v-12.946Z" style="fill:#fff;"/><path d="M186.48979,43.552h2.61529c.21621.93914,1.29711,1.54559,3.02099,1.54559,2.12814,0,3.38878-1.01073,3.38878-2.72198v-2.48474h-.19085c-.81712,1.41821-2.36061,2.25829-3.99523,2.1745-3.30453,0-5.3499-2.55492-5.3499-6.43084,0-3.94736,2.0678-6.53891,5.37517-6.53891,1.67515-.05833,3.24309.82202,4.06542,2.2826h.20215v-2.06781h2.44823v13.05246c0,2.96064-2.31908,4.83892-5.9802,4.83892-3.23436.00018-5.32737-1.45005-5.59984-3.64979ZM195.56258,35.62192c0-2.57887-1.33361-4.23107-3.50951-4.23107-2.19836,0-3.43373,1.65229-3.43373,4.23107,0,2.58019,1.23535,4.23247,3.43373,4.23247,2.18993-.00003,3.50955-1.63964,3.50955-4.23248h-.00004Z" style="fill:#fff;"/><path d="M201.4024,38.59517c0-2.33032,1.73512-3.67375,4.81503-3.86468l3.5067-.20214v-1.11742c0-1.36732-.90405-2.13939-2.65036-2.13939-1.42626,0-2.41454.52362-2.69811,1.4389h-2.4735c.26111-2.22363,2.35278-3.64989,5.28953-3.64989,3.24559,0,5.07618,1.61575,5.07618,4.35038v8.84537h-2.45946v-1.81932h-.20215c-.83533,1.32861-2.32082,2.10511-3.88854,2.03262-2.14826.22346-4.0709-1.33689-4.29437-3.48514-.01345-.12933-.02044-.25926-.02095-.38929ZM209.72415,37.48896v-1.08232l-3.16137.20214c-1.78283.11931-2.59142.72576-2.59142,1.86705,0,1.16515,1.01074,1.84319,2.40061,1.84319,1.67689.16974,3.17389-1.05204,3.34364-2.72894.0034-.03366.00625-.06737.00853-.10112Z" style="fill:#fff;"/><path d="M216.38663,24.25667h2.55492v17.99957h-2.55492v-17.99957Z" style="fill:#fff;"/><path d="M222.49318,35.77774c-.32257-3.37178,2.14931-6.36663,5.5211-6.68919,3.37178-.32256,6.36662,2.14932,6.68919,5.5211.03716.38848.03716.77962,0,1.16809.32834,3.37178-2.13885,6.37132-5.51063,6.69966-3.37176.32834-6.37132-2.13885-6.69965-5.51062-.03849-.39541-.03849-.79363,0-1.18904ZM232.07552,35.77774c0-2.80619-1.26062-4.44724-3.47299-4.44724-2.22082,0-3.47012,1.64104-3.47012,4.44726,0,2.82867,1.24939,4.45707,3.47012,4.45707,2.21237-.00003,3.47301-1.63966,3.47299-4.4571Z" style="fill:#fff;"/><path d="M256.10305,38.7608c-.71642,2.44196-3.07955,4.01974-5.6096,3.74534-3.24645.0857-5.94768-2.47659-6.03337-5.72303-.00847-.32061.00932-.64137.05317-.95908-.43786-3.26845,1.85677-6.27301,5.12522-6.71088.27966-.03746.56161-.05506.84375-.05265,3.60216,0,5.77525,2.46099,5.77525,6.52623v.89154h-9.14159v.14317c-.15859,1.88315,1.23945,3.5383,3.12261,3.69688.10814.00911.21662.01306.32513.01186,1.24996.15006,2.46672-.46997,3.07995-1.56946l2.45949.00009ZM247.11583,34.5887h6.53883c.12753-1.72039-1.16375-3.21843-2.88414-3.34595-.10066-.00746-.2016-.01004-.3025-.00773-1.82841-.02294-3.32923,1.44069-3.35217,3.2691-.00035.02819-.00035.05639.00002.08458h-.00004Z" style="fill:#fff;"/><path d="M259.68837,29.31039h2.45946v2.05657h.19092c.66393-1.51418,2.21536-2.44041,3.86327-2.30646,2.31891-.17435,4.34008,1.56415,4.51444,3.88305.02338.31094.01215.62352-.03349.93198v8.3806h-2.55492v-7.73901c0-2.08043-.90405-3.11505-2.79357-3.11505-1.63835-.07631-3.02833,1.18996-3.10464,2.8283-.00704.15091-.00254.30215.01345.45238v7.57353h-2.55492l.00002-12.94588Z" style="fill:#fff;"/><path d="M292.60476,38.7608c-.71642,2.44196-3.07955,4.01974-5.6096,3.74534-3.24645.0857-5.94768-2.47659-6.03337-5.72303-.00847-.32061.00932-.64137.05317-.95908-.43786-3.26845,1.85677-6.27301,5.12522-6.71088.27966-.03746.56161-.05506.84375-.05265,3.60216,0,5.77525,2.46099,5.77525,6.52623v.89154h-9.14159v.14317c-.15859,1.88315,1.23945,3.5383,3.12261,3.69688.10814.00911.21662.01306.32513.01186,1.24996.15006,2.46672-.46997,3.07995-1.56946l2.45949.00009ZM283.61754,34.5887h6.5389c.12753-1.72039-1.16375-3.21843-2.88414-3.34595-.10066-.00746-.2016-.01004-.3025-.00773-1.82841-.02298-3.32925,1.44062-3.35224,3.26903-.00035.02821-.00035.05643.00002.08464h-.00004Z" style="fill:#fff;"/><path d="M296.30804,24.25667h2.55492v17.99957h-2.55492v-17.99957Z" style="fill:#fff;"/></g></g></svg>