<?xml version="1.0" encoding="UTF-8"?>
<svg id="Capa_1" xmlns="http://www.w3.org/2000/svg" xmlns:xlink="http://www.w3.org/1999/xlink" viewBox="0 0 1195.28 150.7">
  <defs>
    <style>
      .cls-1 {
        fill: #fff;
      }

      .cls-2 {
        fill: #00c293;
      }

      .cls-3 {
        fill: url(#Degradado_sin_nombre_86);
      }
    </style>
    <linearGradient id="Degradado_sin_nombre_86" data-name="Degradado sin nombre 86" x1="0%" y1="0%" x2="100%" y2="100%" gradientUnits="objectBoundingBox">
      <stop offset="0" stop-color="#009FE3"/>
      <stop offset="0.5" stop-color="#7C3AED"/>
      <stop offset="1" stop-color="#C850C0"/>
    </linearGradient>
  </defs>
  <g>
    <path d="M246.01,93.16c0-26.43,21.46-41.65,45.9-41.65,12.52,0,23.08,4.43,29.71,10.78l-10.83,14.6c-6.05-4.4-11.62-6.38-17.59-6.38-13.65,0-23.08,8.88-23.08,22.65s9.27,22.56,22.3,22.56c8.33,0,15.18-3.63,20.88-7.57l9.5,14.87c-9.56,8.03-21.78,11.7-32.61,11.7-25.01,0-44.18-15.23-44.18-41.56Z"/>
    <path d="M364.19,101.75v-62.58h-24.98v-18.46h48.54v81.99c0,9.82,6.31,13,12.94,13,3.67,0,7.55-.77,12.37-2.6l5.21,17.31c-8.24,2.69-13.82,4.29-23.69,4.29-19.99,0-30.38-12.83-30.38-32.96Z"/>
    <path d="M471.8,71.88h-31.96v-18.46h55.52v79.38h-23.55v-60.92ZM466.87,26.63c0-8.62,6.56-14.63,15.64-14.63s15.64,6.01,15.64,14.63-6.56,14.4-15.64,14.4-15.64-5.73-15.64-14.4Z"/>
    <path d="M534.82,53.42h19.19l1.7,10.58h.64c6.89-6.75,15.62-12.5,27.43-12.5,17.94,0,25.84,12.27,25.84,32.28v49.01h-23.56v-45.98c0-10.56-3.04-15.25-11.64-15.25-6.28,0-10.56,2.91-16.05,8.26v52.97h-23.56V53.42Z"/>
    <path d="M628.09,93.07c0-25.97,20.03-41.56,41.3-41.56,24.48,0,37.37,16.52,37.37,38.1,0,4.31-.67,8.58-.99,10.54h-60.22v-15.78h44.3l-3.71,4.49c0-12.74-5.54-19.44-15.97-19.44-11.63,0-19.26,7.88-19.26,23.66s8.96,23.71,24.4,23.71c7.2,0,13.41-1.96,20.45-5.51l7.8,14.18c-9.07,5.81-20.83,9.28-31.47,9.28-24.75,0-44-15.27-44-41.65Z"/>
    <path d="M733.75,53.42h19.35l1.86,17.36h.55c7.81-12.99,19.51-19.28,32.18-19.28,6.91,0,10.67,1.15,15.24,3.2l-4.77,19.79c-4.98-1.53-8.21-2.33-14.05-2.33-9.83,0-19.95,5.11-26.81,19.35v41.29h-23.55V53.42Z"/>
    <path d="M821.08,110.79c0-17.79,14.7-26.84,52.21-29.12-.83-7.1-6.18-11.44-16.83-11.44-7.66,0-15.27,2.95-24.2,7.43l-8.4-15.42c11-6.27,23.66-10.74,37.14-10.74,22.32,0,35.84,11.6,35.84,35.93v45.37h-19.24l-1.7-8.94h-.59c-8.02,6.03-17.95,10.86-28.14,10.86-16.06,0-26.1-10.58-26.1-23.93ZM873.29,108.9v-13c-23.35,1.17-29.62,6.23-29.62,13.01,0,5.11,4.31,7.59,10.96,7.59,7.07,0,13.05-3.24,18.67-7.6Z"/>
    <path class="cls-2" d="M936.66,115.92c0-10.42,7.61-18.8,18.62-18.8s18.62,8.37,18.62,18.8-7.61,18.79-18.62,18.79-18.62-8.21-18.62-18.79Z"/>
    <path class="cls-2" d="M1047.79,71.88h-31.96v-18.46h55.52v79.38h-23.55v-60.92ZM1042.86,26.63c0-8.62,6.56-14.63,15.64-14.63s15.64,6.01,15.64,14.63-6.56,14.4-15.64,14.4-15.64-5.73-15.64-14.4Z"/>
    <path class="cls-2" d="M1106.8,93.16c0-26.43,19.54-41.65,40.48-41.65s40.48,15.23,40.48,41.65-19.54,41.56-40.48,41.56-40.48-15.23-40.48-41.56ZM1163.65,93.16c0-13.76-5.53-22.65-16.37-22.65s-16.37,8.88-16.37,22.65,5.53,22.56,16.37,22.56,16.37-8.84,16.37-22.56Z"/>
  </g>
  <rect class="cls-3" y="3.35" width="140" height="144" rx="26.71" ry="26.71"/>
  <path class="cls-1" d="M47.82,86.79c0-15.06,10.3-23.69,22.25-23.69,6.27,0,11.22,2.73,14.46,6.35l-4.35,6.65c-3.1-2.82-6.16-4.34-9.67-4.34-7.85,0-13.25,5.97-13.25,15.04s5.33,14.92,12.98,14.92c4.46,0,8.16-2.28,11.17-4.96l3.86,6.77c-4.54,4.5-10.26,6.84-15.83,6.84-12.29,0-21.62-8.63-21.62-23.57Z"/>
</svg>