<svg id="Google Play Store" xmlns="http://www.w3.org/2000/svg" viewBox="0 0 386.79634 114.60602"><g id="svg1694"><g id="g1702"><g id="g1704"><g id="g1706"><g id="g1708"><path id="path1716" d="M372.47052,0H14.32595C6.44669,0,0,6.4468,0,14.32584v85.95447c0,7.87951,6.44669,14.32571,14.32595,14.32571h358.14457c7.87902,0,14.32582-6.44621,14.32582-14.32571V14.32584c0-7.87903-6.4468-14.32584-14.32582-14.32584M372.47052,2.29204c6.63602,0,12.0338,5.39778,12.0338,12.0338v85.95447c0,6.63589-5.39778,12.03386-12.0338,12.03386H14.32595c-6.63589,0-12.03361-5.39797-12.03361-12.03386V14.32584C2.29235,7.68982,7.69006,2.29204,14.32595,2.29204h358.14457" style="fill:#fff;"/><path id="path1718" d="M306.3888,85.95441h5.34629v-35.81698h-5.34629v35.81698ZM354.54316,63.03883l-6.12827,15.52933h-.18381l-6.36058-15.52933h-5.75885l9.53817,21.70376-5.43789,12.07385h5.57562l14.70124-33.77762h-5.94563ZM324.22456,81.88587c-1.75376,0-4.19489-.87658-4.19489-3.04216,0-2.7653,3.03989-3.8227,5.66722-3.8227,2.34953,0,3.45542.50733,4.88524,1.19751-.41553,3.31843-3.2722,5.66734-6.3576,5.66734M324.86878,62.25685c-3.87095,0-7.88203,1.70466-9.54057,5.48101l4.74692,1.98308c1.01429-1.98308,2.90277-2.62794,4.88524-2.62794,2.76507,0,5.57562,1.65915,5.62173,4.60743v.36943c-.96818-.55265-3.04287-1.38073-5.57562-1.38073-5.11457,0-10.32316,2.81068-10.32316,8.06219,0,4.79376,4.19427,7.87969,8.89331,7.87969,3.59552,0,5.57562-1.61053,6.82222-3.50152h.18322v2.76505h5.16009v-13.73307c0-6.35759-4.74456-9.90462-10.87341-9.90462M291.8276,67.39956h-7.6042v-12.27988h7.6042c3.99728,0,6.26598,3.31231,6.26598,6.14025,0,2.77643-2.26869,6.13965-6.26598,6.13965M291.69048,50.13743h-12.81031v35.81698h5.34331v-13.56913h7.46708c5.92529,0,11.75-4.29236,11.75-11.12537,0-6.8336-5.82469-11.12249-11.75-11.12249M221.83488,81.89197c-3.69312,0-6.78451-3.09156-6.78451-7.33782,0-4.29194,3.09137-7.43242,6.78451-7.43242,3.64702,0,6.50668,3.14047,6.50668,7.43242,0,4.24626-2.85966,7.33782-6.50668,7.33782M227.97213,65.04466h-.18322c-1.20051-1.42983-3.50692-2.72494-6.41506-2.72494-6.09474,0-11.67874,5.35527-11.67874,12.23444,0,6.83049,5.584,12.13978,11.67874,12.13978,2.90816,0,5.21457-1.29223,6.41506-2.77038h.18322v1.75298c0,4.66443-2.49023,7.15465-6.50668,7.15465-3.27819,0-5.30916-2.35269-6.14025-4.33817l-4.66192,1.94009c1.33823,3.23143,4.89423,7.20004,10.80215,7.20004,6.27736,0,11.58653-3.69307,11.58653-12.69315v-21.88082h-5.07985v1.98548ZM236.74211,85.95441h5.35527v-35.81998h-5.35527v35.81998ZM249.99078,74.13857c-.13712-4.71042,3.64703-7.10843,6.36897-7.10843,2.12617,0,3.92545,1.06039,4.5242,2.58423l-10.89318,4.5242ZM266.60866,70.07601c-1.0173-2.72494-4.10867-7.75629-10.43212-7.75629-6.27735,0-11.49192,4.93974-11.49192,12.18881,0,6.83007,5.16905,12.1854,12.09129,12.1854,5.587,0,8.81548-3.41548,10.15669-5.40072l-4.15416-2.77068c-1.38731,2.0311-3.27819,3.36944-6.00253,3.36944-2.72256,0-4.66191-1.24661-5.90853-3.69031l16.29455-6.74193-.55326-1.38372ZM136.79417,66.06195v5.16846h12.36911c-.37003,2.90816-1.33823,5.03141-2.81355,6.50674-1.80226,1.80214-4.6188,3.78527-9.55555,3.78527-7.61857,0-13.572-6.13725-13.572-13.75582,0-7.61557,5.95343-13.75282,13.572-13.75282,4.10867,0,7.10843,1.61305,9.32323,3.69013l3.64702-3.64403c-3.09377-2.95426-7.20004-5.21756-12.97026-5.21756-10.43212,0-19.2021,8.49515-19.2021,18.92428,0,10.43506,8.76998,18.92733,19.2021,18.92733,5.6301,0,9.87648-1.84842,13.19957-5.30929,3.41531-3.41524,4.4787-8.21415,4.4787-12.09361,0-1.20051-.09221-2.30641-.27842-3.22909h-17.39984ZM168.53422,81.89197c-3.69013,0-6.87612-3.04593-6.87612-7.38344,0-4.38703,3.18598-7.38679,6.87612-7.38679,3.69312,0,6.8791,2.99977,6.8791,7.38679,0,4.33751-3.18598,7.38344-6.8791,7.38344M168.53422,62.31972c-6.739,0-12.23139,5.12595-12.23139,12.18881,0,7.01389,5.49239,12.1854,12.23139,12.1854s12.23439-5.17151,12.23439-12.1854c0-7.06286-5.49538-12.18881-12.23439-12.18881M195.22017,81.89197c-3.69252,0-6.8791-3.04593-6.8791-7.38344,0-4.38703,3.18658-7.38679,6.8791-7.38679,3.69372,0,6.87672,2.99977,6.87672,7.38679,0,4.33751-3.18298,7.38344-6.87672,7.38344M195.22017,62.31972c-6.7384,0-12.23139,5.12595-12.23139,12.18881,0,7.01389,5.49299,12.1854,12.23139,12.1854,6.739,0,12.23139-5.17151,12.23139-12.1854,0-7.06286-5.49239-12.18881-12.23139-12.18881" style="fill:#fff;"/></g></g><g id="g1728"><g id="g1730"><path id="path1736" d="M125.35256,35.03621c2.02739,0,3.60211-.56043,4.72358-1.6819,1.12147-1.12207,1.68251-2.67105,1.68251-4.64874s-.56104-3.52787-1.68251-4.64934-2.6962-1.6825-4.72358-1.6825h-2.89199v12.66249h2.89199ZM119.71886,19.7811h5.70854c1.84477,0,3.45242.37422,4.82298,1.12207,1.37115.74785,2.42616,1.79867,3.16563,3.15305.74007,1.35499,1.1095,2.90397,1.1095,4.64934,0,1.74478-.36943,3.29436-1.1095,4.64874-.73947,1.35439-1.79447,2.40521-3.16563,3.15305-1.37055.74785-2.97821,1.12147-4.82298,1.12147h-5.70854v-17.84771" style="fill:#fff;"/><path id="path1738" d="M138.08989,19.7811h2.74171v17.84771h-2.74171v-17.84771" style="fill:#fff;"/><path id="path1740" d="M146.56468,36.73188c-1.17955-.86401-2.00224-2.07708-2.46747-3.63924l2.59202-1.04722c.26644.99693.74007,1.81184,1.42085,2.44293.68138.63169,1.50408.94723,2.46807.94723.89694,0,1.65795-.23232,2.28067-.69815.6233-.46523.93466-1.1047.93466-1.91902,0-.74785-.27423-1.36696-.82269-1.85734-.54846-.49038-1.49569-.96819-2.84169-1.43342l-1.12147-.39877c-1.21308-.4317-2.22259-1.03465-3.02851-1.80705-.80592-.773-1.20888-1.79867-1.20888-3.07881,0-.88017.23711-1.69508.71073-2.44233.47361-.74785,1.13764-1.33762,1.99386-1.76993.85562-.4323,1.82381-.64845,2.90397-.64845,1.54539,0,2.78362.37841,3.71408,1.13404.93047.75683,1.56216,1.60826,1.89506,2.55549l-2.46867,1.04722c-.16586-.59876-.51494-1.11368-1.04662-1.54598-.53169-.4317-1.22146-.64785-2.0693-.64785-.81371,0-1.50348.21615-2.0687.64785-.56462.4323-.84723.98076-.84723,1.64538,0,.61492.25327,1.12566.76042,1.53281.50595.40776,1.29152.79335,2.35491,1.15919l1.14661.39877c1.52923.53229,2.70877,1.22146,3.54044,2.0687.83048.84784,1.24601,1.97829,1.24601,3.39016,0,1.16339-.29518,2.13995-.88496,2.92912-.58978.78976-1.346,1.37474-2.26808,1.75735-.92268.38201-1.86572.57301-2.82972.57301-1.47892,0-2.80816-.4317-3.98832-1.29571" style="fill:#fff;"/><path id="path1742" d="M166.33201,28.1068c.9137,0,1.64898-.28621,2.20582-.85981s.83526-1.24182.83526-2.00643-.27842-1.43342-.83526-2.00703c-.55685-.57301-1.29212-.85981-2.20582-.85981h-3.46501v5.73309h3.46501ZM160.12531,19.7811h6.13185c1.06339,0,2.03937.23292,2.92911.69815.88856.46583,1.59508,1.11368,2.11899,1.94416.52331.83167.78498,1.77052.78498,2.81715s-.26166,1.98548-.78498,2.81655c-.52391.83107-1.23045,1.47952-2.11899,1.94416-.88976.46523-1.86572.69815-2.92911.69815h-3.39016v6.9294h-2.74171v-17.84771" style="fill:#fff;"/><path id="path1744" d="M186.93341,34.57577c.98915-.57361,1.76993-1.37115,2.34293-2.39323.57361-1.02207.86042-2.18127.86042-3.47697,0-1.29691-.28681-2.4555-.86042-3.47757-.57301-1.02207-1.35379-1.81962-2.34293-2.39323-.98855-.57301-2.08128-.85981-3.27759-.85981-1.19691,0-2.28964.28681-3.27819.85981-.98855.57361-1.76933,1.37115-2.34293,2.39323-.57301,1.02207-.86042,2.18067-.86042,3.47757,0,1.29571.28741,2.4549.86042,3.47697.57361,1.02207,1.35439,1.81962,2.34293,2.39323.98855.57301,2.08128.85981,3.27819.85981,1.19631,0,2.28904-.28681,3.27759-.85981ZM178.94421,36.78158c-1.41247-.83107-2.52197-1.95674-3.32729-3.37758-.80652-1.42145-1.20948-2.98719-1.20948-4.69844,0-1.71184.40296-3.27819,1.20948-4.69904.80532-1.42085,1.91482-2.54651,3.32729-3.37758s2.98301-1.24661,4.71161-1.24661c1.72802,0,3.29376.41553,4.69844,1.24661,1.40408.83107,2.50938,1.95674,3.31532,3.37758.80592,1.42085,1.20888,2.98719,1.20888,4.69904,0,1.71124-.40296,3.27699-1.20888,4.69844-.80592,1.42085-1.91122,2.54651-3.31532,3.37758-1.40468.83107-2.97043,1.24601-4.69844,1.24601-1.72862,0-3.29915-.41494-4.71161-1.24601" style="fill:#fff;"/><path id="path1746" d="M196.41769,19.7811h3.24047l8.07603,13.11216h.14969l-.14969-3.44045v-9.67171h2.71715v17.84771h-2.84169l-8.47479-13.78456h-.14969l.14969,3.44045v10.34411h-2.71715v-17.84771" style="fill:#fff;"/><path id="path1748" d="M214.96356,19.7811h2.74171v17.84771h-2.74171v-17.84771" style="fill:#fff;"/><path id="path1750" d="M229.17204,35.0865c.8634,0,1.55796-.26166,2.08128-.78497.52331-.52391.78498-1.15081.78498-1.88189,0-.73168-.27004-1.36277-.80952-1.89446-.54068-.53229-1.25919-.79814-2.15672-.79814h-4.13801v5.35947h4.238ZM228.74812,27.28471c.83107,0,1.49569-.25327,1.99386-.76102.49877-.50655.74785-1.09213.74785-1.75675s-.2455-1.24242-.73467-1.7328c-.49098-.48979-1.12626-.73527-1.90764-.73527h-3.91348v4.98584h3.81409ZM222.19234,19.7811h6.68032c.94724,0,1.828.20837,2.6423.62331.81431.41553,1.45858.98495,1.93219,1.70765.47361.7227.71013,1.52503.71013,2.4058s-.22034,1.64898-.66043,2.30521c-.44069.65683-1.02626,1.15919-1.75795,1.50826v.12454c.93107.31614,1.67052.83946,2.21899,1.57054.54786.73108.82209,1.59509.82209,2.59262,0,.98016-.25327,1.84836-.75982,2.60459-.50714.75623-1.18854,1.346-2.04415,1.76993-.85622.42332-1.79087.63528-2.80398.63528h-6.9797v-17.84771" style="fill:#fff;"/><path id="path1752" d="M238.39408,19.7811h2.74231v15.25511h7.67726v2.59262h-10.41955v-17.84771" style="fill:#fff;"/><path id="path1754" d="M251.70563,19.7811h10.81833v2.59262h-8.07663v5.03494h7.27848v2.59262h-7.27848v5.03494h8.07663v2.59262h-10.81833v-17.84771" style="fill:#fff;"/><path id="path1754-2" d="M271.01551,19.7811h10.81833v2.59262h-8.07663v5.03494h7.27848v2.59262h-7.27848v5.03494h8.07663v2.59262h-10.81833v-17.84771" style="fill:#fff;"/><path id="path1746-2" d="M286.23109,19.7811h3.24047l8.07603,13.11216h.14969l-.14969-3.44045v-9.67171h2.71715v17.84771h-2.84169l-8.47479-13.78456h-.14969l.14969,3.44045v10.34411h-2.71715v-17.84771" style="fill:#fff;"/></g></g></g><path id="path1720" d="M59.35797,55.65257l-30.50518,32.37665c.00281.00539.00281.01425.00587.01964.93669,3.51583,4.14567,6.10312,7.95639,6.10312,1.52425,0,2.95402-.4126,4.18034-1.13464l.0973-.05748,34.3362-19.8123-16.07091-17.49499" style="fill:#eb3131;"/><path id="path1722" d="M90.21875,50.13982l-.02874-.02036-14.8246-8.59275-16.70092,14.86172,16.7608,16.75558,14.74437-8.50652c2.58423-1.39869,4.34098-4.12303,4.34098-7.26351,0-3.12311-1.73101-5.83308-4.29189-7.23417" style="fill:#f6b60b;"/><path id="path1724" d="M28.85231,26.57998c-.18358.676-.28088,1.38672-.28088,2.1202v57.21167c0,.73348.0973,1.44378.28369,2.11738l31.55097-31.54857-31.55378-29.90067" style="fill:#4385f6;"/><path id="path1726" d="M59.58346,57.30574l15.78674-15.7844-34.29578-19.88408c-1.24637-.74785-2.70189-1.17776-4.25769-1.17776-3.81054,0-7.02532,2.59322-7.96232,6.1115,0,.003-.00281.00599-.00281.00898l30.73187,30.72576" style="fill:#3bad49;"/></g></g></svg>